<!-- Layers icon by Icons8 -->
<svg xmlns="http://www.w3.org/2000/svg" xmlns:xlink="http://www.w3.org/1999/xlink" version="1.0" x="0px" y="0px" viewBox="0 0 26 26" class="icon icons8-Layers" ><g id="surface1"><path style=" " d="M 12.3125 0 C 12.011719 0 11.699219 -0.0117188 11.5 0.1875 L 0.5 8.6875 C 0.199219 8.988281 -0.0078125 9.289063 0.09375 9.6875 C 0.195313 10.085938 0.511719 10.398438 0.8125 10.5 L 4.6875 11.5 L 0.5 14.71875 C 0.203125 14.949219 0.0625 15.328125 0.136719 15.699219 C 0.207031 16.070313 0.480469 16.367188 0.84375 16.46875 L 4.71875 17.46875 L 0.5 20.71875 C 0.203125 20.949219 0.0625 21.328125 0.136719 21.699219 C 0.207031 22.070313 0.480469 22.367188 0.84375 22.46875 L 14.25 25.96875 C 14.585938 26.054688 14.9375 25.957031 15.1875 25.71875 L 25.6875 15.9375 C 25.96875 15.675781 26.074219 15.277344 25.960938 14.910156 C 25.847656 14.546875 25.535156 14.277344 25.15625 14.21875 L 21.71875 13.65625 L 25.6875 9.9375 C 25.96875 9.675781 26.074219 9.277344 25.960938 8.910156 C 25.847656 8.546875 25.535156 8.277344 25.15625 8.21875 L 21.8125 7.625 L 25.8125 3.90625 C 26.011719 3.707031 26.101563 3.304688 26 2.90625 C 25.898438 2.507813 25.585938 2.289063 25.1875 2.1875 Z M 19.96875 9.34375 L 22.84375 9.84375 L 14.21875 17.90625 L 3.3125 15.0625 L 7.125 12.125 L 14.3125 14 L 14.59375 14 C 14.894531 14 15.113281 13.886719 15.3125 13.6875 Z M 19.875 15.34375 L 22.84375 15.84375 L 14.21875 23.90625 L 3.34375 21.0625 L 7.1875 18.125 L 14.25 19.96875 C 14.585938 20.054688 14.9375 19.957031 15.1875 19.71875 Z "></path></g></svg>
